{
  "source": "C:\\Users\\Peter\\Desktop\\stuff\\MIUN\\quantitative_research\\video_compression\\videos\\BVI-HD\\BVI-HD_CDVL_videos\\ORIG\\SmokeGuns_1920x1080_60fps.mp4",
  "output": "C:\\Users\\Peter\\Desktop\\stuff\\MIUN\\quantitative_research\\video_compression\\compressed_videos\\BVI-HD\\h264\\2\\SmokeGuns_1920x1080_60fps_h264.mp4",
  "codec": "h264",
  "ok": "Input #0, mov,mp4,m4a,3gp,3g2,mj2, from 'C:\\Users\\Peter\\Desktop\\stuff\\MIUN\\quantitative_research\\video_compression\\videos\\BVI-HD\\BVI-HD_CDVL_videos\\ORIG\\SmokeGuns_1920x1080_60fps.mp4':\n  Metadata:\n    major_brand     : isom\n    minor_version   : 512\n    compatible_brands: isomiso2avc1mp41\n    encoder         : Lavf54.28.101\n  Duration: 00:00:05.00, start: 0.000000, bitrate: 384353 kb/s\n  Stream #0:0[0x1](und): Video: h264 (High 4:4:4 Predictive) (avc1 / 0x31637661), yuv420p(progressive), 1920x1080, 384348 kb/s, 60 fps, 60 tbr, 60 tbn (default)\n    Metadata:\n      handler_name    : VideoHandler\n      vendor_id       : [0][0][0][0]\n[out#0/mp4 @ 000001ff13fb9c00] Codec AVOption b:a (set bitrate (in bits/s)) has not been used for any stream. The most likely reason is either wrong type (e.g. a video option with no video streams) or that it is a private option of some decoder which was not actually used for any stream.\nStream mapping:\n  Stream #0:0 -> #0:0 (h264 (native) -> h264 (libx264))\nPress [q] to stop, [?] for help\n[libx264 @ 000001ff14690ac0] using cpu capabilities: MMX2 SSE2Fast SSSE3 SSE4.2 AVX FMA3 BMI2 AVX2\n[libx264 @ 000001ff14690ac0] profile High, level 5.0, 4:2:0, 8-bit\n[libx264 @ 000001ff14690ac0] 264 - core 165 r3222 b35605a - H.264/MPEG-4 AVC codec - Copyleft 2003-2025 - http://www.videolan.org/x264.html - options: cabac=1 ref=5 deblock=1:0:0 analyse=0x3:0x113 me=hex subme=8 psy=1 psy_rd=1.00:0.00 mixed_ref=1 me_range=16 chroma_me=1 trellis=2 8x8dct=1 cqm=0 deadzone=21,11 fast_pskip=1 chroma_qp_offset=-2 threads=18 lookahead_threads=3 sliced_threads=0 nr=0 decimate=1 interlaced=0 bluray_compat=0 constrained_intra=0 bframes=3 b_pyramid=2 b_adapt=1 b_bias=0 direct=3 weightb=1 open_gop=0 weightp=2 keyint=250 keyint_min=25 scenecut=40 intra_refresh=0 rc_lookahead=50 rc=cbr mbtree=1 bitrate=2000 ratetol=1.0 qcomp=0.60 qpmin=0 qpmax=69 qpstep=4 vbv_maxrate=2000 vbv_bufsize=2000 nal_hrd=none filler=0 ip_ratio=1.40 aq=1:1.00\nOutput #0, mp4, to 'C:\\Users\\Peter\\Desktop\\stuff\\MIUN\\quantitative_research\\video_compression\\compressed_videos\\BVI-HD\\h264\\2\\SmokeGuns_1920x1080_60fps_h264.mp4':\n  Metadata:\n    major_brand     : isom\n    minor_version   : 512\n    compatible_brands: isomiso2avc1mp41\n    encoder         : Lavf62.3.100\n  Stream #0:0(und): Video: h264 (avc1 / 0x31637661), yuv420p(tv, progressive), 1920x1080, q=2-31, 2000 kb/s, 60 fps, 15360 tbn (default)\n    Metadata:\n      encoder         : Lavc62.11.100 libx264\n      handler_name    : VideoHandler\n      vendor_id       : [0][0][0][0]\n    Side data:\n      cpb: bitrate max/min/avg: 2000000/0/2000000 buffer size: 2000000 vbv_delay: N/A\nframe=    0 fps=0.0 q=0.0 size=       0KiB time=N/A bitrate=N/A speed=N/A elapsed=0:00:00.51    \nframe=    0 fps=0.0 q=0.0 size=       0KiB time=N/A bitrate=N/A speed=N/A elapsed=0:00:01.06    \nframe=   32 fps= 20 q=42.0 size=       0KiB time=00:00:00.50 bitrate=   0.8kbits/s speed=0.312x elapsed=0:00:01.60    \nframe=   68 fps= 32 q=40.0 size=       0KiB time=00:00:01.10 bitrate=   0.3kbits/s speed=0.512x elapsed=0:00:02.14    \nframe=  100 fps= 37 q=40.0 size=     256KiB time=00:00:01.56 bitrate=1338.9kbits/s speed=0.583x elapsed=0:00:02.68    \nframe=  132 fps= 41 q=40.0 size=     256KiB time=00:00:02.16 bitrate= 968.1kbits/s speed=0.668x elapsed=0:00:03.24    \nframe=  164 fps= 43 q=40.0 size=     512KiB time=00:00:02.70 bitrate=1553.6kbits/s speed=0.712x elapsed=0:00:03.79    \nframe=  196 fps= 45 q=40.0 size=     512KiB time=00:00:03.23 bitrate=1297.3kbits/s speed=0.746x elapsed=0:00:04.33    \nframe=  233 fps= 48 q=40.0 size=     512KiB time=00:00:03.85 bitrate=1089.5kbits/s speed=0.794x elapsed=0:00:04.84    \nframe=  287 fps= 54 q=-1.0 size=     768KiB time=00:00:04.75 bitrate=1324.6kbits/s speed=0.886x elapsed=0:00:05.36    \n[mp4 @ 000001ff13fca600] Starting second pass: moving the moov atom to the beginning of the file\n[out#0/mp4 @ 000001ff13fb9c00] video:966KiB audio:0KiB subtitle:0KiB other streams:0KiB global headers:0KiB muxing overhead: 0.450453%\nframe=  300 fps= 55 q=-1.0 Lsize=     970KiB time=00:00:04.96 bitrate=1600.2kbits/s speed=0.912x elapsed=0:00:05.44    \n[libx264 @ 000001ff14690ac0] frame I:2     Avg QP:35.99  size: 27860\n[libx264 @ 000001ff14690ac0] frame P:76    Avg QP:37.81  size:  7897\n[libx264 @ 000001ff14690ac0] frame B:222   Avg QP:42.62  size:  1497\n[libx264 @ 000001ff14690ac0] consecutive B-frames:  1.3%  0.0%  0.0% 98.7%\n[libx264 @ 000001ff14690ac0] mb I  I16..4: 49.0% 49.5%  1.5%\n[libx264 @ 000001ff14690ac0] mb P  I16..4:  5.4%  2.2%  0.0%  P16..4: 30.8%  2.0%  1.3%  0.0%  0.0%    skip:58.3%\n[libx264 @ 000001ff14690ac0] mb B  I16..4:  0.1%  0.0%  0.0%  B16..8: 19.2%  0.2%  0.0%  direct: 0.0%  skip:80.5%  L0:20.5% L1:79.1% BI: 0.4%\n[libx264 @ 000001ff14690ac0] 8x8 transform intra:34.1% inter:96.5%\n[libx264 @ 000001ff14690ac0] direct mvs  spatial:95.5% temporal:4.5%\n[libx264 @ 000001ff14690ac0] coded y,uvDC,uvAC intra: 11.7% 29.9% 3.3% inter: 1.2% 1.5% 0.0%\n[libx264 @ 000001ff14690ac0] i16 v,h,dc,p: 27% 24%  9% 40%\n[libx264 @ 000001ff14690ac0] i8 v,h,dc,ddl,ddr,vr,hd,vl,hu: 11%  7% 22% 10% 11% 11% 10% 10%  9%\n[libx264 @ 000001ff14690ac0] i4 v,h,dc,ddl,ddr,vr,hd,vl,hu: 12%  8%  8% 11% 16% 14% 12% 10% 10%\n[libx264 @ 000001ff14690ac0] i8c dc,h,v,p: 77% 10%  8%  4%\n[libx264 @ 000001ff14690ac0] Weighted P-Frames: Y:0.0% UV:0.0%\n[libx264 @ 000001ff14690ac0] ref P L0: 53.0% 16.2% 21.1%  4.2%  5.5%\n[libx264 @ 000001ff14690ac0] ref B L0: 88.8%  8.3%  2.1%  0.8%\n[libx264 @ 000001ff14690ac0] ref B L1: 96.8%  3.2%\n[libx264 @ 000001ff14690ac0] kb/s:1581.19\n",
  "seconds": 5.67159628868103,
  "probe_out": {}
}